# xmcd
#
# Track frame offsets:
#	150
#	25587
#	47207
#	68151
#	89813
#	113043
#	130850
#	145725
#	163281
#	182907
#	199257
#	219582
#
# Disc length: 3231 seconds
#
# Revision: 0
# Processed by: cddbd v1.5.1PL0 Copyright (c) Steve Scherf et al.
# Submitted via: dBpowerAMP V4.0
#
DISCID=b50c9d0c
DTITLE=PRESUNTOS IMPLICADOS - Postales
DYEAR=2005
DGENRE=Blues
TTITLE0=Tenemos que hablar
TTITLE1=¿Quién?
TTITLE2=Jerusalén
TTITLE3=Postales
TTITLE4=Incapaz de sonreir
TTITLE5=Polizón
TTITLE6=Boleros
TTITLE7=Comedia Divina
TTITLE8=Eso es lo mejor
TTITLE9=Todo perdido
TTITLE10=Amore
TTITLE11=Deshabitada
EXTD=
EXTT0=
EXTT1=
EXTT2=
EXTT3=
EXTT4=
EXTT5=
EXTT6=
EXTT7=
EXTT8=
EXTT9=
EXTT10=
EXTT11=
PLAYORDER=
